# xmcd
#
# Track frame offsets: 
#        150
#        10079
#        24729
#        35576
#        47112
#        60545
#        73310
#        84035
#        96873
#        110463
#        121927
#        133009
#        142870
#        155645
#        167725
#        179993
#        193550
#        206928
#        216932
#        227906
#        240530
#        252446
#        264469
#        276686
#        289802
#        303514
#
# Disc length: 4194 seconds
#
# Revision: 0
# Processed by: cddbd v1.5.2PL0 Copyright (c) Steve Scherf et al.
# Submitted via: ExactAudioCopy v1.0b3
#
DISCID=9010601a
DTITLE=Various Artist - Country Memories
DYEAR=1900
DGENRE=Country
TTITLE0=Hank Locklin - Please Help Me, I'm Falling
TTITLE1=Don Gibson - I Can't Stop Loving You
TTITLE2=Jim Reeves - He'll Have To Go
TTITLE3=Freddy Fender - Before The Next Teardrop Falls
TTITLE4=Patti Page - The Tennessee Waltz
TTITLE5=Bobby Helms - Fraulein
TTITLE6=Carl Belew - Am I That Easy To Forget
TTITLE7=Johnny Tillotson - It Keeps Right On A-Hurtin
TTITLE8=Ray Price - Heartaches By The Number
TTITLE9=Skeeter Davis - Gonna Get Along Without You Now
TTITLE10=Guy Mitchell - Singing The Blues
TTITLE11=Ned Miller - From A Jack To A King
TTITLE12=Kitty Wells - Makin' Believe
TTITLE13=Wanda Jackson - Right Or Wrong
TTITLE14=Hank Williams - Your Cheatin' Heart
TTITLE15=David Houston - Almost Persuaded
TTITLE16=Tammy Wynette - D-I-V-O-R-C-E
TTITLE17=George Hamilton IV - Abilene
TTITLE18=George Jones - Tender Years
TTITLE19=Hank Williams - I'm So Lonesome I Could Cry
TTITLE20=Patsy Cline - Walkin' After Midnight
TTITLE21=Jack Greene - There Goes My Everything
TTITLE22=Ray Price - Release Me
TTITLE23=Bobby Helms - My Special Angel
TTITLE24=Billy Walker - Funny How Time Slips Away
TTITLE25=Slim Whitman - The Wayward Wind
EXTD=
EXTT0=
EXTT1=
EXTT2=
EXTT3=
EXTT4=
EXTT5=
EXTT6=
EXTT7=
EXTT8=
EXTT9=
EXTT10=
EXTT11=
EXTT12=
EXTT13=
EXTT14=
EXTT15=
EXTT16=
EXTT17=
EXTT18=
EXTT19=
EXTT20=
EXTT21=
EXTT22=
EXTT23=
EXTT24=
EXTT25=
PLAYORDER=
